<svg xmlns="http://www.w3.org/2000/svg" height="90" width="328">
  <g fill="none" fill-rule="evenodd">
    <g fill-rule="nonzero">
      <circle cx="49.6" cy="44.7" fill="#cf6c00" r="9"/>
      <path d="M35.4 36.9a101 101 0 0 0-11.6 29.7c-.9 4.9-1 9.2-.4 12.6.6 3 1.7 5 3.1 5.9 1.5.8 4 .8 7-.3a36 36 0 0 0 11.1-7 99 99 0 0 0 18.6-24.6c5.7-10 9.7-20 11.4-28.1 1-5.3 1.2-10.1.6-13.8-.5-3.3-1.7-5.5-3.2-6.4-1.4-.8-3.7-.8-6.6.3-3.3 1.2-7 3.6-10.7 7a99 99 0 0 0-19.3 24.7zm-3.7-2.2C37.7 24.2 45 15 52 9c4-3.7 8.2-6.3 12-7.7 4-1.5 7.6-1.6 10.2 0 5.5 3.1 7 12.8 4.6 24.7C77 34.7 72.7 45 67 55.3A103 103 0 0 1 47.4 81c-8.7 7.7-17.7 11-23 7.8-2.7-1.5-4.4-4.6-5.2-8.8-.7-4-.6-8.8.4-14.2 1.8-9.3 6.1-20.4 12.1-31zm0 0z" fill="#222"/>
      <path d="M18.8 33.4a34.8 34.8 0 0 0-11 5.9c-2.4 2-3.5 4-3.5 5.6 0 1.7 1.2 3.9 3.7 6a36 36 0 0 0 11.7 6.2c7.8 2.7 18.4 4.1 30.3 4.1 11.3 0 21.9-1.4 29.7-4 5.1-1.7 9.3-4 12.2-6.3 2.5-2.1 3.8-4.2 3.8-6 0-1.6-1.2-3.6-3.6-5.7a36.3 36.3 0 0 0-11.3-5.9A97.6 97.6 0 0 0 50 28.8c-11.7 0-23 1.7-31.2 4.6zm31.2-9c12 0 23.4 1.8 32.2 4.8C87.4 31 91.8 33.3 95 36c3.2 2.8 5.1 5.9 5.1 9 0 6.3-7.5 12.5-19 16.3-8.3 2.8-19.3 4.3-31 4.3-12.3 0-23.4-1.4-31.7-4.3C7.3 57.4 0 51.2 0 45c0-3 1.8-6.1 5-8.9 3-2.6 7.2-4.9 12.4-6.7 8.8-3 20.5-4.8 32.6-4.8z" fill="#ff921b"/>
      <path d="M55.4 78.2A35 35 0 0 0 66 84.9c3 1 5.2 1 6.7.2 1.5-.9 2.7-3 3.3-6.3.6-3.6.5-8.3-.5-13.4a99.4 99.4 0 0 0-11.8-28.6 99.6 99.6 0 0 0-18.5-24c-4-3.6-8-6.2-11.5-7.5-3.2-1.2-5.7-1.3-7.2-.4-1.4.9-2.5 3-3 6a37 37 0 0 0 .5 13A99.8 99.8 0 0 0 35.6 53c5.9 10.3 13 19.3 19.8 25zm-19.8-25zM32 55.2a104 104 0 0 1-12.2-30.6c-1-5.5-1.2-10.5-.5-14.5.7-4.3 2.4-7.4 5.1-9C29.8-2 39 1.4 48 9.5c6.7 6 13.5 14.8 19.4 25.1a103.5 103.5 0 0 1 12.3 30c2.3 11.6.5 21-4.9 24.2-2.7 1.6-6.2 1.6-10.2.2-3.8-1.4-7.9-4-12-7.5a104.5 104.5 0 0 1-20.7-26.2z" fill="#222"/>
    </g>
    <path d="M127.4 62a28 28 0 0 0 18.1 6.3c8.3-.1 12.5-3 12.6-8.9.1-4.8-2.7-7.6-8.3-8.6l-8.5-1.2a21 21 0 0 1-12.5-6 17 17 0 0 1-4.4-12c0-5.5 1.8-10 5.5-13.4 3.6-3.4 8.7-5.1 15.4-5.2a36 36 0 0 1 20.7 6.6l-5.4 8c-4.8-3.2-10-4.8-15.8-5-3 0-5.5.8-7.5 2.3-2 1.6-3.1 3.9-3.2 7a7 7 0 0 0 2.2 5c1.4 1.5 3.7 2.5 6.8 3.1l7.2 1c6 .8 10.5 3 13.3 6.5 2.9 3.4 4.3 7.4 4.3 11.9-.3 12.2-7.8 18.4-22.5 18.6-9.4 0-17.6-3-24.4-8.8zm44-48.5h10.3l14.5 48.7h.2l14.5-48.7h10.3l-21.1 64h-7.6zm75.8 28.8h22.7v13A22.6 22.6 0 0 1 247 78c-5-.1-9.2-1.3-12.6-3.7a21.4 21.4 0 0 1-8.7-10.6c-.4-.9-.7-2-1-3.4a107 107 0 0 1-.6-14.8c0-7.4.3-12.4.7-15 .5-2.4 1.2-4.5 2.1-6 1.6-3 4-5.6 7.5-7.9a22 22 0 0 1 12.6-3.6c6.2 0 11.2 1.9 15 5.5 4 3.6 6.4 8.1 7.4 13.4h-10.2a14 14 0 0 0-4.3-6.5 12.7 12.7 0 0 0-8-2.7c-2.2 0-4.2.5-5.8 1.4-1.7.8-3 2-4 3.2-1.3 1.4-2.1 3.2-2.5 5.3-.5 2.3-.7 6.6-.7 12.9s.2 10.5.7 12.8c.4 2.2 1.2 4 2.5 5.4 1 1.3 2.3 2.3 4 3.2 1.6 1 3.6 1.4 5.9 1.4 3.8 0 6.9-1.3 9.3-3.9 2.5-2.4 3.7-5.6 3.8-9.6v-3.4h-13zm43.7-.7h14.6c3.7-.1 6.4-1.2 8.2-3.2a9.9 9.9 0 0 0 2.7-7c0-3.4-1.1-5.8-3.2-7.3-1.7-1.3-4-2-7.1-2h-15.2zm-9.7-28h25c5.3 0 9.6 1.3 13 4.1a17 17 0 0 1 6.3 13.7A17.8 17.8 0 0 1 313.2 49L328 77.5h-11.5L303.3 50h-12.4v27.4h-9.7z" fill="#222"/>
  </g>
</svg>
